<?xml version="1.0" encoding="utf-8"?>
<!-- Generator: Adobe Illustrator 24.0.0, SVG Export Plug-In . SVG Version: 6.00 Build 0)  -->
<svg version="1.1" id="Layer_1" xmlns="http://www.w3.org/2000/svg" xmlns:xlink="http://www.w3.org/1999/xlink" x="0px" y="0px"
	 viewBox="0 0 132 24" style="enable-background:new 0 0 132 24;" xml:space="preserve">
<style type="text/css">
	.st0{fill:#31271D;}
</style>
<g>
	<path class="st0" d="M72.3,22.4c-1-0.7-1.8-1.6-2.5-2.7S69,16.9,69,15.5s0.3-3.1,0.8-4.2c0.5-1.1,1.4-2.1,2.5-2.7
		c1-0.7,2.3-1,3.8-1c1.4,0,2.7,0.3,3.8,1c1.1,0.7,1.9,1.6,2.5,2.7c0.5,1.1,0.8,2.9,0.8,4.2s-0.3,3.1-0.8,4.2
		c-0.5,1.1-1.4,2.1-2.5,2.7c-1.1,0.7-2.3,1-3.8,1C74.6,23.4,73.4,23.1,72.3,22.4 M78.9,20.1c0.6-1.2,1-2.9,1-4.7s-0.3-3.5-1-4.7
		c-0.6-1.2-1.7-1.7-2.8-1.7c-1.1,0-2.1,0.5-2.7,1.7c-0.6,1.2-0.9,2.9-0.9,4.7s0.3,3.5,0.9,4.7c0.6,1.2,1.7,1.7,2.7,1.7
		S78.3,21.3,78.9,20.1"/>
	<path class="st0" d="M98.2,8.8c-1-0.9-2.3-1.3-4.1-1.3c-1.8,0-3.4,0.5-4.6,1.4c-0.2-0.4-0.4-1.2-2.3-1.2h-1.9v0.8
		c0.5,0.1,0.9,0.3,1.1,0.7c0.3,0.5,0.4,1.3,0.4,2.3v11.4H90V10.3c0.8-0.8,2-1.1,3-1.1c0.9,0,1.9,0.3,2.5,1s0.8,1.7,0.8,3.1v9.8h3.2
		v-10C99.7,11.1,99.2,9.7,98.2,8.8"/>
	<path class="st0" d="M48.6,9c-0.5-0.7-1.4-1.2-2.5-1.2h-2v0.8C44.6,8.7,45,9,45.2,9.3c0.3,0.5,0.4,1.3,0.4,2.3v11.4h3.2V10.5
		c0.8-0.7,1.9-1.2,2.7-1.2c1.6,0,2.7,1.4,2.7,4.1v9.8h3v-9.8c0-1,0-1.8-0.1-2.6c0.3-0.5,1.5-1.5,2.9-1.5c1.6,0,2.7,1.4,2.7,4.1v9.8
		h3.2v-10c0-3.6-1.5-5.5-4.9-5.5c-1.8,0-3.4,0.6-4.5,1.9c-0.3-0.6-1.4-1.9-4-1.9C50.9,7.5,49.5,8.3,48.6,9"/>
	<path class="st0" d="M122.1,22.5c-1-0.7-1.8-1.6-2.3-2.7c-0.5-1.2-0.8-2.9-0.8-4.3c0-1.5,0.3-3.3,0.8-4.4c0.5-1.1,1.3-2,2.3-2.6
		s2.1-0.9,3.4-0.9c2,0,3.6,0.5,4.7,1.7c1.2,1.2,1.8,3.1,1.8,5.1c0,1-0.1,1.6-0.1,1.6h-9.7c0,1.8,0.5,3.4,1.2,4.5
		c0.7,1,1.7,1.4,2.9,1.4c2.3,0,3.8-1.4,4.4-2.3l0.8,0.6c-0.6,1-1.4,1.8-2.3,2.3c-0.9,0.5-2.1,0.8-3.4,0.8
		C124.4,23.4,123.2,23.1,122.1,22.5 M129.1,14.5c0-1.8-0.2-3.2-0.7-4.1c-0.5-0.9-1.4-1.5-2.6-1.5c-1.2,0-2.2,0.7-2.7,1.6
		c-0.5,0.9-0.8,2.3-0.8,4L129.1,14.5L129.1,14.5z"/>
	<path class="st0" d="M112.6,4.6c0-1-0.1-1.8-0.4-2.3c-0.2-0.3-0.6-0.6-1.1-0.7V0.8h2.1c0.8,0,1.3,0.1,1.7,0.3
		c0.4,0.2,0.7,0.6,0.8,1.2c0.1,0.5,0.3,1.5,0.3,2.8v18.1h-2.2l-0.8-1.4h-0.1c-0.5,0.6-1.7,1.7-4,1.7c-2,0-3.4-0.7-4.5-2.1
		s-1.6-3.6-1.6-5.8s0.5-4.4,1.6-5.8c1.1-1.4,2.6-2.1,4.7-2.1c1.2,0,2.6,0.3,3.7,0.9L112.6,4.6L112.6,4.6z M112.6,10.1
		c-1-0.6-2.2-0.9-2.9-0.9c-1.2,0-2.3,0.5-2.8,1.6c-0.5,1.1-0.8,2.7-0.8,4.6s0.3,3.6,0.8,4.7s1.5,1.5,2.6,1.5c1.4,0,2.5-1,3.1-1.8
		L112.6,10.1L112.6,10.1z"/>
	<path class="st0" d="M19.3,2.2l-6.8,15.7c0,0-6.4-14.2-6.6-14.5C5.8,3.1,5.3,2.2,3.3,2.2H0V3c0,0,0.8,0.3,1.2,0.8
		C1.4,4.3,1.6,4.9,1.6,6v17.3h2.3V6l7.7,17.3h1L20,6.4v16.8h3.1v-21H19.3z"/>
	<path class="st0" d="M41.6,22.1c-0.9-0.3-1.1-1.5-1.1-2.9V7.7h-0.8c-0.8,0-1.7,0.3-2.3,1c-1.4-0.9-2.8-1.1-3.9-1.1
		c-1.4,0-2.7,0.3-3.8,1c-1,0.7-1.8,1.6-2.5,2.7c-0.5,1.1-0.8,2.9-0.8,4.2s0.3,3.1,0.8,4.2c0.5,1.1,1.4,2.1,2.5,2.7
		c1,0.7,2.3,1,3.8,1c1.8,0,3.4-0.5,4.5-1.5c0.7,0.8,1.6,1.2,2.3,1.2h1.2L41.6,22.1L41.6,22.1z M36.6,20.1c-0.6,1.2-1.9,1.7-3,1.7
		s-2.4-0.5-3-1.7s-0.9-2.9-0.9-4.7s0.3-3.5,0.9-4.7c0.6-1.2,1.9-1.7,3-1.7s2.4,0.5,3,1.7c0.6,1.2,1,2.9,1,4.7
		C37.5,17.3,37.2,19,36.6,20.1"/>
</g>
</svg>
